<svg xmlns="http://www.w3.org/2000/svg" viewBox="0 0 229.44 220.06"><defs><style>.cls-1{fill:#252525;}.cls-1,.cls-3{stroke:#252525;}.cls-1,.cls-2,.cls-3{stroke-miterlimit:10;}.cls-2,.cls-3{fill:none;}.cls-2{stroke:#231f20;}</style></defs><g id="Layer_2" data-name="Layer 2"><g id="Layer_1-2" data-name="Layer 1"><path class="cls-1" d="M25.32,106.69s-6.42,2.52-5.5-13.76L23.71,78l5.05,6.42s3-25.46,23.85-50.22c0,0,23.38-24.31,42-28.2,0,0,19.49-8.26,39.9-4.59l32.33,8s16,6,26.37-7.57l11.23.23v66l-10.32-.92s-20.4-49.76-46.77-54.35c0,0-28.21-10.77-48.61,5.74,0,0-25.23,18.8-31,61.22l6.42-1.15S71.87,104.85,65.68,103c0,0-11-3-12.39,2.06,0,0,.46-12.15-8-7.79,0,0-11.93-7.11-6.88,3.44,0,0-10.09-1.9-5.27,7.76l2.75,3s-7.57-4.58-10.78,0Z"/><path class="cls-1" d="M57.88,153.92s-3.9,22-13.76,7.8c0,0-7.11,7.34-5.27-4.82,0,0-11.93-8.25,6.42-9.85,0,0-15.14-4.13-4.59-13.53,0,0-8.71,7.1-11.92,2.29s0,1.15,0,1.15l4.36,17.65s4.35,11.47,8.25,17.43l10.32,14-7.57,8.48H59.26s18.34,17.89,50.9,24.08c0,0,40.59,4.58,60.54-6.19,0,0,25-10.32,31.87-16.06V145.9s3.67-14.22,26.37-12.38v-9.86H142.49v8.25s24.54-2.52,25.91,16.28l.46,36.46s-2.52,19-30,23.16c0,0-25-.46-38.52-11.92,0,0-22.24-20.64-20.41-27.29,0,0,13.53-1.38,13.53-5.73l10.78-2.75s-2.29-11.24-8.94-14.45L90.44,145s-1.15,10.78-22.24,2.07c0,0,13.76,6.87,8.94,18.34,0,0-2.52,2.29-6.19-2.52,0,0,4.13,7.56-1.15,7.56,0,0-8,1.84-7.1-5.27,0,0-8,5-6-1.61Z"/><path class="cls-1" d="M70,133.75l3.44-13.07s-.69-9,24.54-8.26c0,0-1.38,5-2.07,8.94,0,0-.23,6.42-2.75,8.49s-9.17,3.9-9.17,3.9,2.75-10.32-10.55-3Z"/><path class="cls-1" d="M21.88,121.82s-8.26-4.58-18.34,20.87c0,0,29.7,7.79,23.79-8.94v-4.82s-8.89,3.9-6.6-2.06Z"/><path class="cls-2" d="M25.09,111.5l.92,3.44c-6,.69-6.28,5.28-6.28,5.28v.8"/><path class="cls-3" d="M53.29,105.08l-3.21,10.78s-6.42.46-7.56,2.29l1.14-1.83-6.88-3.94"/><path class="cls-2" d="M50.08,115.86l3.21,4.36a7.36,7.36,0,0,0-3.21,5.27s-4.81-2.29-7.1,0-2.3,8-2.3,8"/><path class="cls-3" d="M42.52,118.15s-3.9,3,.46,7.34"/><path class="cls-3" d="M65.68,103s14,8.78-3.21,15.13c0,0,12.87-4.58,10.22,5.51"/><path class="cls-3" d="M53.29,120.22s2.3-7.57,9.18-2.07"/><path class="cls-2" d="M84,133.75s13,2.52,2.29,9.17L90.44,145"/><circle class="cls-2" cx="60.58" cy="141.11" r="6.08"/><path class="cls-2" d="M30.13,144.5S18,142.92,24.06,154.84c0,0,8.71,7.86,11.35,9.52,0,0,3.9,2.69,0,7.25"/><path class="cls-2" d="M31.52,148.16s-6.66.26-2.53,13.56c0,0,3.67,10.89.11,14.45,0,0-6.19,3.55-8.71-1.72,0,0-4.13-8.49,1.26-7.91,0,0,8.36-.41,3.55,5.07,0,0-1.11,1.58-2.84-.49,0,0,.39-4.14,1.81-2.06"/><path class="cls-2" d="M10.16,101.64c.69.35.57,1.15,1.49-.68s-2.06-2.18-2.06-2.18c-4.13.8-2.41,3.32-2.41,3.32.8,3.33,3.33,3,3.33,3,5.73.46,3.21-7.11,3.21-7.11-3-5.27-7.34-2.52-7.34-2.52C2,96.83,4,106,4,106c.8,4.13,7.91,7.34,7.91,7.34a22.53,22.53,0,0,0,13.53-1.84s-6.36,5.85-9.59,6.65-7.12-4.81-7.12-4.81-5-6-8.26,0"/><path class="cls-3" d="M70,107.27s11-1.5,14.56,3.09c0,0,5.51,4,11.47-1.62l6-5.61"/><path class="cls-3" d="M70.72,113.34s6-1.4,7.57-4.6A36.42,36.42,0,0,1,84,102.1s7.67-3.86,8.83,2.18c0,0-.85,6.87-6.82,4.46,0,0-2-1.59-1.21-3.08s4.24-1.84,4.47.34"/><path class="cls-2" d="M87.27,167.68l14.06-2.18s13.87-2.17,9.17,9.18"/><path class="cls-2" d="M87.92,167.58s17.31-4.37,19,6.41c0,0,1,8.94-6,8.83,0,0-5.16-1-5-6,0,0,2-6.65,6.65-1.37"/></g></g></svg>