<svg width="230" height="221" viewBox="0 0 230 221" fill="none" xmlns="http://www.w3.org/2000/svg">
<g clip-path="url(#clip0_3_48)">
<path d="M25.3199 106.69C25.3199 106.69 18.8999 109.21 19.8199 92.93L23.7099 78L28.7599 84.42C28.7599 84.42 31.7599 58.96 52.6099 34.2C52.6099 34.2 75.9899 9.89 94.6099 6C94.6099 6 114.1 -2.26 134.51 1.41L166.84 9.41C166.84 9.41 182.84 15.41 193.21 1.84L204.44 2.07V68.07L194.12 67.15C194.12 67.15 173.72 17.39 147.35 12.8C147.35 12.8 119.14 2.03 98.7399 18.54C98.7399 18.54 73.5099 37.34 67.7399 79.76L74.16 78.61C74.16 78.61 71.8699 104.85 65.6799 103C65.6799 103 54.6799 100 53.2899 105.06C53.2899 105.06 53.7499 92.91 45.2899 97.27C45.2899 97.27 33.3599 90.16 38.4099 100.71C38.4099 100.71 28.3199 98.81 33.1399 108.47L35.8899 111.47C35.8899 111.47 28.3199 106.89 25.1099 111.47L25.3199 106.69Z" fill="#E7AB3C" fill-opacity="0.6" stroke="#E7AB3C" stroke-opacity="0.6" stroke-miterlimit="10"/>
<path d="M57.88 153.92C57.88 153.92 53.98 175.92 44.12 161.72C44.12 161.72 37.01 169.06 38.85 156.9C38.85 156.9 26.92 148.65 45.27 147.05C45.27 147.05 30.13 142.92 40.68 133.52C40.68 133.52 31.97 140.62 28.76 135.81C25.55 131 28.76 136.96 28.76 136.96L33.12 154.61C33.12 154.61 37.47 166.08 41.37 172.04L51.69 186.04L44.12 194.52H59.26C59.26 194.52 77.6 212.41 110.16 218.6C110.16 218.6 150.75 223.18 170.7 212.41C170.7 212.41 195.7 202.09 202.57 196.35V145.9C202.57 145.9 206.24 131.68 228.94 133.52V123.66H142.49V131.91C142.49 131.91 167.03 129.39 168.4 148.19L168.86 184.65C168.86 184.65 166.34 203.65 138.86 207.81C138.86 207.81 113.86 207.35 100.34 195.89C100.34 195.89 78.1 175.25 79.93 168.6C79.93 168.6 93.46 167.22 93.46 162.87L104.24 160.12C104.24 160.12 101.95 148.88 95.3 145.67L90.44 145C90.44 145 89.29 155.78 68.2 147.07C68.2 147.07 81.96 153.94 77.14 165.41C77.14 165.41 74.62 167.7 70.95 162.89C70.95 162.89 75.08 170.45 69.8 170.45C69.8 170.45 61.8 172.29 62.7 165.18C62.7 165.18 54.7 170.18 56.7 163.57L57.88 153.92Z" fill="#E7AB3C" fill-opacity="0.6" stroke="#E7AB3C" stroke-opacity="0.6" stroke-miterlimit="10"/>
<path d="M70 133.75L73.44 120.68C73.44 120.68 72.75 111.68 97.98 112.42C97.98 112.42 96.6 117.42 95.91 121.36C95.91 121.36 95.68 127.78 93.16 129.85C90.64 131.92 83.99 133.75 83.99 133.75C83.99 133.75 86.74 123.43 73.44 130.75L70 133.75Z" fill="#E7AB3C" fill-opacity="0.6" stroke="#E7AB3C" stroke-opacity="0.6" stroke-miterlimit="10"/>
<path d="M21.88 121.82C21.88 121.82 13.62 117.24 3.53998 142.69C3.53998 142.69 33.24 150.48 27.33 133.75V128.93C27.33 128.93 18.44 132.83 20.73 126.87L21.88 121.82Z" fill="#E7AB3C" fill-opacity="0.6" stroke="#E7AB3C" stroke-opacity="0.6" stroke-miterlimit="10"/>
<path d="M25.09 111.5L26.01 114.94C20.01 115.63 19.73 120.22 19.73 120.22V121.02" stroke="#E7AB3C" stroke-opacity="0.6" stroke-miterlimit="10"/>
<path d="M53.29 105.08L50.08 115.86C50.08 115.86 43.66 116.32 42.52 118.15L43.66 116.32L36.78 112.38" stroke="#E7AB3C" stroke-opacity="0.6" stroke-miterlimit="10"/>
<path d="M50.08 115.86L53.29 120.22C52.4054 120.814 51.6602 121.592 51.106 122.502C50.5518 123.412 50.2017 124.432 50.08 125.49C50.08 125.49 45.27 123.2 42.98 125.49C40.69 127.78 40.68 133.49 40.68 133.49" stroke="#E7AB3C" stroke-opacity="0.6" stroke-miterlimit="10"/>
<path d="M42.52 118.15C42.52 118.15 38.62 121.15 42.98 125.49" stroke="#E7AB3C" stroke-opacity="0.6" stroke-miterlimit="10"/>
<path d="M65.68 103C65.68 103 79.68 111.78 62.47 118.13C62.47 118.13 75.34 113.55 72.69 123.64" stroke="#E7AB3C" stroke-opacity="0.6" stroke-miterlimit="10"/>
<path d="M53.29 120.22C53.29 120.22 55.59 112.65 62.47 118.15" stroke="#E7AB3C" stroke-opacity="0.6" stroke-miterlimit="10"/>
<path d="M84 133.75C84 133.75 97 136.27 86.29 142.92L90.44 145" stroke="#E7AB3C" stroke-opacity="0.6" stroke-miterlimit="10"/>
<path d="M60.58 147.19C63.9379 147.19 66.66 144.468 66.66 141.11C66.66 137.752 63.9379 135.03 60.58 135.03C57.2221 135.03 54.5 137.752 54.5 141.11C54.5 144.468 57.2221 147.19 60.58 147.19Z" stroke="#E7AB3C" stroke-opacity="0.6" stroke-miterlimit="10"/>
<path d="M30.13 144.5C30.13 144.5 18 142.92 24.06 154.84C24.06 154.84 32.77 162.7 35.41 164.36C35.41 164.36 39.31 167.05 35.41 171.61" stroke="#E7AB3C" stroke-opacity="0.6" stroke-miterlimit="10"/>
<path d="M31.5199 148.16C31.5199 148.16 24.8599 148.42 28.9899 161.72C28.9899 161.72 32.6599 172.61 29.0999 176.17C29.0999 176.17 22.9099 179.72 20.3899 174.45C20.3899 174.45 16.2599 165.96 21.6499 166.54C21.6499 166.54 30.0099 166.13 25.1999 171.61C25.1999 171.61 24.0899 173.19 22.3599 171.12C22.3599 171.12 22.7499 166.98 24.1699 169.06" stroke="#E7AB3C" stroke-opacity="0.6" stroke-miterlimit="10"/>
<path d="M10.16 101.64C10.85 101.99 10.73 102.79 11.65 100.96C12.57 99.13 9.58997 98.78 9.58997 98.78C5.45997 99.58 7.17997 102.1 7.17997 102.1C7.97997 105.43 10.51 105.1 10.51 105.1C16.24 105.56 13.72 97.99 13.72 97.99C10.72 92.72 6.37997 95.47 6.37997 95.47C1.99997 96.83 3.99997 106 3.99997 106C4.79997 110.13 11.91 113.34 11.91 113.34C16.5017 114.141 21.2289 113.498 25.44 111.5C25.44 111.5 19.08 117.35 15.85 118.15C12.62 118.95 8.72997 113.34 8.72997 113.34C8.72997 113.34 3.72997 107.34 0.469971 113.34" stroke="#E7AB3C" stroke-opacity="0.6" stroke-miterlimit="10"/>
<path d="M70 107.27C70 107.27 81 105.77 84.56 110.36C84.56 110.36 90.07 114.36 96.03 108.74L102.03 103.13" stroke="#E7AB3C" stroke-opacity="0.6" stroke-miterlimit="10"/>
<path d="M70.72 113.34C70.72 113.34 76.72 111.94 78.29 108.74C79.9193 106.305 81.8365 104.076 84 102.1C84 102.1 91.67 98.24 92.83 104.28C92.83 104.28 91.98 111.15 86.01 108.74C86.01 108.74 84.01 107.15 84.8 105.66C85.59 104.17 89.04 103.82 89.27 106" stroke="#E7AB3C" stroke-opacity="0.6" stroke-miterlimit="10"/>
<path d="M87.27 167.68L101.33 165.5C101.33 165.5 115.2 163.33 110.5 174.68" stroke="#E7AB3C" stroke-opacity="0.6" stroke-miterlimit="10"/>
<path d="M87.92 167.58C87.92 167.58 105.23 163.21 106.92 173.99C106.92 173.99 107.92 182.93 100.92 182.82C100.92 182.82 95.76 181.82 95.92 176.82C95.92 176.82 97.92 170.17 102.57 175.45" stroke="#E7AB3C" stroke-opacity="0.6" stroke-miterlimit="10"/>
</g>
<defs>
<clipPath id="clip0_3_48">
<rect width="229.44" height="220.06" fill="white"/>
</clipPath>
</defs>
</svg>
